<svg xmlns="http://www.w3.org/2000/svg" width="400" height="400" viewBox="0 0 400 400">
  <g id="logo" transform="translate(-681 -437)">
    <g id="Path_1" data-name="Path 1" transform="translate(681 437)" fill="none">
      <path d="M200,0C310.457,0,400,89.543,400,200S310.457,400,200,400,0,310.457,0,200,89.543,0,200,0Z" stroke="none"/>
      <path d="M 200 1 C 186.4974517822266 1 173.0036926269531 2.360260009765625 159.8934936523438 5.042999267578125 C 147.1170043945313 7.657440185546875 134.5496520996094 11.55856323242188 122.5405578613281 16.63800048828125 C 110.7492065429688 21.62530517578125 99.3763427734375 27.79830932617188 88.7379150390625 34.98550415039063 C 78.20028686523438 42.10455322265625 68.2911376953125 50.28036499023438 59.28573608398438 59.28573608398438 C 50.28036499023438 68.2911376953125 42.10455322265625 78.20028686523438 34.98550415039063 88.7379150390625 C 27.79830932617188 99.3763427734375 21.62530517578125 110.7492065429688 16.63800048828125 122.5405578613281 C 11.55856323242188 134.5496520996094 7.657440185546875 147.1170043945313 5.042999267578125 159.8934936523438 C 2.360260009765625 173.0036926269531 1 186.4974517822266 1 200 C 1 213.5025482177734 2.360260009765625 226.9963073730469 5.042999267578125 240.1065063476563 C 7.657440185546875 252.8829956054688 11.55856323242188 265.4503479003906 16.63800048828125 277.4594421386719 C 21.62530517578125 289.2507934570313 27.79830932617188 300.6236572265625 34.98550415039063 311.2620849609375 C 42.10455322265625 321.7996826171875 50.28036499023438 331.7088623046875 59.28573608398438 340.7142333984375 C 68.2911376953125 349.7196655273438 78.20028686523438 357.8954467773438 88.7379150390625 365.0144958496094 C 99.3763427734375 372.2016906738281 110.7492065429688 378.3746948242188 122.5405578613281 383.3619995117188 C 134.5496520996094 388.4414367675781 147.1170043945313 392.3425598144531 159.8934936523438 394.9570007324219 C 173.0036926269531 397.6397399902344 186.4974517822266 399 200 399 C 213.5025482177734 399 226.9963073730469 397.6397399902344 240.1065063476563 394.9570007324219 C 252.8829498291016 392.3425598144531 265.4503173828125 388.4414367675781 277.4594421386719 383.3619995117188 C 289.2507934570313 378.3746948242188 300.6236572265625 372.2016906738281 311.2620544433594 365.0144958496094 C 321.7996826171875 357.8954467773438 331.7088012695313 349.7196655273438 340.7142333984375 340.7142333984375 C 349.7196655273438 331.7088623046875 357.8954467773438 321.7996826171875 365.0144958496094 311.2620849609375 C 372.2016906738281 300.6236572265625 378.3746337890625 289.2507934570313 383.3619995117188 277.4594421386719 C 388.4414367675781 265.4503479003906 392.3425598144531 252.8829956054688 394.9570007324219 240.1065063476563 C 397.6397399902344 226.9963073730469 399 213.5025482177734 399 200 C 399 186.4974517822266 397.6397399902344 173.0036926269531 394.9570007324219 159.8934936523438 C 392.3425598144531 147.1170043945313 388.4414367675781 134.5496520996094 383.3619995117188 122.5405578613281 C 378.3746337890625 110.7492065429688 372.2016906738281 99.3763427734375 365.0144958496094 88.7379150390625 C 357.8954467773438 78.20028686523438 349.7196655273438 68.2911376953125 340.7142333984375 59.28573608398438 C 331.7088012695313 50.28036499023438 321.7996826171875 42.10455322265625 311.2620544433594 34.98550415039063 C 300.6236572265625 27.79830932617188 289.2507934570313 21.62530517578125 277.4594421386719 16.63800048828125 C 265.4503173828125 11.55856323242188 252.8829498291016 7.657440185546875 240.1065063476563 5.042999267578125 C 226.9963073730469 2.360260009765625 213.5025482177734 1 200 1 M 200 0 C 310.4569091796875 0 400 89.54306030273438 400 200 C 400 310.4569396972656 310.4569091796875 400 200 400 C 89.54306030273438 400 0 310.4569396972656 0 200 C 0 89.54306030273438 89.54306030273438 0 200 0 Z" stroke="none" fill="#fff"/>
    </g>
    <g id="Group_1" data-name="Group 1" transform="translate(33)">
      <g id="Group_2" data-name="Group 2">
        <g id="Path_3" data-name="Path 3" transform="translate(724 501)" fill="#fff">
          <path d="M 179.1909942626953 179.5 L 0.8090113401412964 179.5 L 90 1.118022680282593 L 179.1909942626953 179.5 Z" stroke="none"/>
          <path d="M 90 2.236068725585938 L 1.618026733398438 179 L 178.3819732666016 179 L 90 2.236068725585938 M 90 0 L 180 180 L 0 180 L 90 0 Z" stroke="none" fill="#707070"/>
        </g>
        <g id="Path_4" data-name="Path 4" transform="translate(792 501)" fill="#fff">
          <path d="M 179.1909942626953 179.5 L 0.8090113401412964 179.5 L 90 1.118022680282593 L 179.1909942626953 179.5 Z" stroke="none"/>
          <path d="M 90 2.236068725585938 L 1.618026733398438 179 L 178.3819732666016 179 L 90 2.236068725585938 M 90 0 L 180 180 L 0 180 L 90 0 Z" stroke="none" fill="#707070"/>
        </g>
      </g>
      <line id="Line_3" data-name="Line 3" y1="112" x2="55" transform="translate(759.5 569.5)" fill="none" stroke="#707070" stroke-width="1"/>
      <line id="Line_5" data-name="Line 5" y1="112" x2="55" transform="translate(829.5 569.5)" fill="none" stroke="#707070" stroke-width="1"/>
      <line id="Line_8" data-name="Line 8" y1="62" x2="31" transform="translate(857.5 619.5)" fill="none" stroke="#707070" stroke-width="1"/>
      <path id="Path_5" data-name="Path 5" d="M0,49.615,8.107,33.723,25.309,0" transform="translate(898.5 586.885)" fill="none" stroke="#707070" stroke-width="1"/>
      <line id="Line_4" data-name="Line 4" x1="10" y1="17" transform="translate(888.5 619.5)" fill="none" stroke="#707070" stroke-width="1"/>
      <line id="Line_6" data-name="Line 6" x1="15" y1="32" transform="translate(884.5 569.5)" fill="none" stroke="#707070" stroke-width="1"/>
      <line id="Line_9" data-name="Line 9" x1="17" y1="34" transform="translate(814.5 569.5)" fill="none" stroke="#707070" stroke-width="1"/>
      <line id="Line_7" data-name="Line 7" x1="16" y2="32" transform="translate(899.5 569.5)" fill="none" stroke="#707070" stroke-width="1"/>
    </g>
    <text id="Sagarmatha_FC" data-name="Sagarmatha FC" transform="translate(778 723)" fill="#fff" font-size="30" font-family="Roboto-Regular, Roboto"><tspan x="0" y="0">Sagarmatha FC</tspan></text>
    <text id="Sydney_1999" data-name="Sydney 1999" transform="translate(824 750)" fill="#fff" font-size="20" font-family="Roboto-Regular, Roboto"><tspan x="0" y="0">Sydney 1999</tspan></text>
  </g>
</svg>
